<?xml version="1.0" encoding="utf-8"?>
<!-- Generator: Adobe Illustrator 16.0.4, SVG Export Plug-In . SVG Version: 6.00 Build 0)  -->
<!DOCTYPE svg PUBLIC "-//W3C//DTD SVG 1.1//EN" "http://www.w3.org/Graphics/SVG/1.1/DTD/svg11.dtd">
<svg version="1.1" id="Layer_1" xmlns="http://www.w3.org/2000/svg" xmlns:xlink="http://www.w3.org/1999/xlink" x="0px" y="0px"
	 width="34px" height="34px" viewBox="0 0 34 34" enable-background="new 0 0 34 34" xml:space="preserve">
<g>
	<path fill-rule="evenodd" clip-rule="evenodd" d="M31.802,12.187c-9.396,4.852-18.76,9.69-28.14,14.534
		c-0.193-0.375-0.384-0.745-0.59-1.142c7.215-3.727,14.434-7.456,21.707-11.211c-1.222-0.79-2.498-1.326-3.819-1.741
		c-1.316-0.413-2.65-0.761-3.954-1.131c0.354-0.073,0.749-0.161,1.149-0.235c1.543-0.289,3.098-0.541,4.669-0.422
		c2.926,0.221,5.849,0.502,8.698,1.269C31.603,12.129,31.684,12.154,31.802,12.187z"/>
</g>
</svg>
