<?xml version="1.0" encoding="utf-8"?>
<!-- Generator: Adobe Illustrator 16.0.4, SVG Export Plug-In . SVG Version: 6.00 Build 0)  -->
<!DOCTYPE svg PUBLIC "-//W3C//DTD SVG 1.1 Tiny//EN" "http://www.w3.org/Graphics/SVG/1.1/DTD/svg11-tiny.dtd">
<svg version="1.1" baseProfile="tiny" id="Layer_1" xmlns="http://www.w3.org/2000/svg" xmlns:xlink="http://www.w3.org/1999/xlink"
	 x="0px" y="0px" width="34px" height="34px" viewBox="0 0 34 34" xml:space="preserve">
<g>
	<path d="M16.909,2.936c0.061,0,0.121,0,0.182,0c0.075,0.091,0.145,0.189,0.228,0.272c4.489,4.492,8.98,8.983,13.472,13.472
		c0.084,0.084,0.183,0.153,0.273,0.229c0,0.061,0,0.121,0,0.182c-0.103,0.086-0.211,0.164-0.306,0.258
		c-4.288,4.287-8.576,8.574-12.862,12.863c-0.276,0.277-0.537,0.568-0.805,0.852c-0.061,0-0.121,0-0.182,0
		c-0.075-0.092-0.145-0.189-0.229-0.273c-4.489-4.492-8.98-8.982-13.472-13.473c-0.083-0.082-0.182-0.152-0.272-0.227
		c0-0.061,0-0.122,0-0.182c0.091-0.075,0.189-0.145,0.272-0.229c4.492-4.489,8.983-8.98,13.472-13.472
		C16.765,3.125,16.834,3.026,16.909,2.936z M25.196,14.515c-0.288-0.283-0.582-0.56-0.865-0.85c-1.424-1.458-3.976-1.52-5.505,0.009
		c-1.648,1.646-3.307,3.28-4.935,4.944c-0.796,0.814-2.125,0.869-2.84,0.01c-0.199-0.24-0.42-0.463-0.621-0.682
		c-0.568,0.566-1.067,1.064-1.591,1.588c0.267,0.256,0.548,0.508,0.81,0.781c1.471,1.535,4.085,1.545,5.624,0.004
		c1.654-1.66,3.328-3.301,4.963-4.98c0.647-0.665,2.095-0.733,2.695,0.012c0.216,0.269,0.466,0.51,0.657,0.717
		C24.141,15.535,24.648,15.043,25.196,14.515z M21.245,10.513c-0.315-0.29-0.613-0.545-0.888-0.823
		c-1.497-1.522-3.999-1.503-5.536,0.01c-1.842,1.814-3.66,3.653-5.487,5.481c-0.115,0.115-0.223,0.236-0.332,0.353
		c0.529,0.514,1.036,1.006,1.578,1.532c0.073-0.083,0.176-0.215,0.292-0.331c1.794-1.798,3.602-3.582,5.379-5.397
		c0.487-0.498,1.614-0.708,2.147-0.331c0.455,0.323,0.875,0.696,1.294,1.033C20.179,11.562,20.674,11.075,21.245,10.513z
		 M12.796,23.472c0.303,0.299,0.602,0.594,0.902,0.889c1.495,1.471,3.929,1.426,5.4,0.006c1.916-1.846,3.771-3.752,5.652-5.635
		c0.091-0.092,0.17-0.193,0.212-0.24c-0.528-0.533-1.021-1.033-1.523-1.542c-1.854,1.855-3.731,3.718-5.588,5.601
		c-0.736,0.746-1.769,0.842-2.517,0.312c-0.369-0.26-0.625-0.682-0.879-0.969C13.853,22.466,13.341,22.954,12.796,23.472z"/>
</g>
</svg>
