<?xml version="1.0" encoding="utf-8"?>
<!-- Generator: Adobe Illustrator 16.0.4, SVG Export Plug-In . SVG Version: 6.00 Build 0)  -->
<!DOCTYPE svg PUBLIC "-//W3C//DTD SVG 1.1//EN" "http://www.w3.org/Graphics/SVG/1.1/DTD/svg11.dtd">
<svg version="1.1" id="Layer_1" xmlns="http://www.w3.org/2000/svg" xmlns:xlink="http://www.w3.org/1999/xlink" x="0px" y="0px"
	 width="34px" height="34px" viewBox="0 0 34 34" enable-background="new 0 0 34 34" xml:space="preserve">
<g>
	<path d="M24.712,12.568c0.234,0,0.455,0,0.677,0c1.298,0.003,2.528,0.294,3.657,0.932c2.243,1.267,3.6,3.173,3.956,5.732
		c0.565,4.059-2.132,7.822-6.142,8.603c-0.46,0.09-0.936,0.134-1.403,0.135c-5.629,0.009-11.258,0.006-16.888,0.006
		c-3.564-0.001-6.716-2.546-7.466-6.025c-0.75-3.488,0.88-6.937,4.065-8.565c1.076-0.55,2.228-0.814,3.438-0.816
		c0.222,0,0.444,0,0.686,0c0.188-2.58,1.305-4.634,3.438-6.097c1.308-0.896,2.777-1.321,4.357-1.297
		c2.04,0.031,3.817,0.752,5.285,2.178C23.831,8.771,24.59,10.52,24.712,12.568z M13.743,17.576c0.077,0,0.141,0.002,0.202,0
		c0.883-0.024,1.771-0.004,2.65-0.088c1.222-0.116,2.314-0.57,3.175-1.492c0.883-0.944,1.371-2.053,1.334-3.35
		c-0.045-1.562-0.747-2.809-1.971-3.757c-1.186-0.918-2.52-1.282-3.983-0.84c-1.748,0.528-2.839,1.747-3.393,3.462
		c-0.322,0.996-0.373,2.036-0.452,3.069c-0.016,0.205-0.087,0.239-0.265,0.228c-0.91-0.054-1.819-0.043-2.724,0.085
		c-1.178,0.168-2.235,0.593-3.061,1.486c-1.065,1.147-1.539,2.49-1.262,4.049c0.278,1.567,1.186,2.705,2.544,3.49
		c0.907,0.523,1.893,0.718,2.925,0.51c1.648-0.332,2.784-1.335,3.515-2.814c0.434-0.881,0.566-1.843,0.657-2.809
		C13.672,18.402,13.707,17.996,13.743,17.576z"/>
	<path fill="#FFFFFF" d="M13.79,14.992c0.241,0.013,0.469,0.039,0.695,0.035c0.64-0.013,1.289,0.016,1.92-0.068
		c1.226-0.164,1.966-1.045,1.934-2.207c-0.036-1.33-1.43-2.379-2.684-2.011c-0.738,0.216-1.174,0.753-1.441,1.442
		C13.869,13.082,13.858,14.033,13.79,14.992z M11.238,17.348c-0.75,0-1.456-0.021-2.159,0.007c-0.612,0.023-1.202,0.176-1.678,0.593
		c-0.675,0.593-0.888,1.345-0.623,2.192c0.271,0.868,0.886,1.414,1.79,1.547c0.907,0.133,1.577-0.289,2.032-1.058
		c0.362-0.61,0.472-1.297,0.541-1.99C11.182,18.229,11.204,17.818,11.238,17.348z"/>
	<path d="M13.79,14.992c0.068-0.959,0.079-1.91,0.425-2.808c0.267-0.689,0.703-1.226,1.441-1.442
		c1.254-0.368,2.647,0.681,2.684,2.011c0.032,1.162-0.708,2.042-1.934,2.207c-0.631,0.084-1.28,0.056-1.92,0.068
		C14.258,15.03,14.03,15.004,13.79,14.992z"/>
	<path d="M11.238,17.348c-0.034,0.471-0.057,0.882-0.098,1.291c-0.069,0.693-0.178,1.38-0.541,1.99
		c-0.455,0.769-1.125,1.19-2.032,1.058c-0.904-0.133-1.518-0.679-1.79-1.547c-0.266-0.848-0.052-1.6,0.623-2.192
		c0.476-0.417,1.066-0.569,1.678-0.593C9.782,17.326,10.488,17.348,11.238,17.348z"/>
</g>
</svg>
